<?xml version="1.0" encoding="UTF-8" standalone="no"?>
<!-- Created with Inkscape (http://www.inkscape.org/) -->

<svg
   width="320"
   height="320"
   viewBox="0 0 84.666665 84.666666"
   version="1.1"
   id="svg1"
   inkscape:version="1.3 (0e150ed6c4, 2023-07-21)"
   sodipodi:docname="cover-image.svg"
   inkscape:export-filename="cover-image.png"
   inkscape:export-xdpi="96"
   inkscape:export-ydpi="96"
   xmlns:inkscape="http://www.inkscape.org/namespaces/inkscape"
   xmlns:sodipodi="http://sodipodi.sourceforge.net/DTD/sodipodi-0.dtd"
   xmlns:xlink="http://www.w3.org/1999/xlink"
   xmlns="http://www.w3.org/2000/svg"
   xmlns:svg="http://www.w3.org/2000/svg">
  <sodipodi:namedview
     id="namedview1"
     pagecolor="#ffffff"
     bordercolor="#000000"
     borderopacity="0.25"
     inkscape:showpageshadow="2"
     inkscape:pageopacity="0.0"
     inkscape:pagecheckerboard="0"
     inkscape:deskcolor="#d1d1d1"
     inkscape:document-units="px"
     inkscape:zoom="1.1729263"
     inkscape:cx="257.04941"
     inkscape:cy="307.35095"
     inkscape:window-width="1920"
     inkscape:window-height="1166"
     inkscape:window-x="-11"
     inkscape:window-y="-11"
     inkscape:window-maximized="1"
     inkscape:current-layer="layer1"
     inkscape:export-bgcolor="#000000ff" />
  <defs
     id="defs1" />
  <g
     inkscape:label="Réteg 1"
     inkscape:groupmode="layer"
     id="layer1">
    <rect
       style="fill:#000000;stroke:none;stroke-width:0.600001;stroke-linecap:round;stroke-linejoin:round;stroke-miterlimit:1"
       id="rect1"
       width="84.666664"
       height="84.666664"
       x="0"
       y="0" />
    <g
       id="g40"
       transform="translate(-28.718563,37.684627)">
      <g
         id="use8"
         transform="translate(79.375116,-2.190727)">
        <path
           style="fill:#000000;fill-opacity:1;stroke:#ffffff;stroke-width:1.3223;stroke-miterlimit:1"
           d="m 4.4035631,13.482667 c 0.7013299,6.502078 0.7428284,11.293501 8.6284879,11.293501 7.249585,0 7.500593,-4.659249 8.269454,-11.293501"
           id="path4"
           sodipodi:nodetypes="csc" />
        <ellipse
           style="fill:#000000;fill-opacity:1;stroke:#ffffff;stroke-width:1.3223;stroke-miterlimit:1"
           id="ellipse4"
           cx="12.852535"
           cy="13.482667"
           rx="8.4489717"
           ry="3.0894976" />
        <path
           style="fill:none;stroke:#ffffff;stroke-width:1.3223;stroke-miterlimit:1"
           d="m 20.813512,15.3057 c 1.178496,0.184589 2.51354,0.376751 2.569456,2.310406 -0.159494,3.230076 -2.632825,2.769871 -3.168546,2.498939"
           id="path5"
           sodipodi:nodetypes="ccc" />
      </g>
      <path
         style="fill:#ffffff;stroke:#ffffff;stroke-width:0.438685;stroke-miterlimit:1;stroke-dasharray:none"
         d="m 85.722045,13.60965 c 4.697693,-2.51875 8.316317,-2.485589 12.806307,0 -3.840802,0.884108 -7.973232,1.165762 -12.806307,0 z"
         id="path38"
         sodipodi:nodetypes="ccc" />
    </g>
    <path
       id="path48"
       style="fill:#000000;stroke:#ffffff;stroke-width:0.711539;stroke-linecap:round;stroke-linejoin:round;stroke-miterlimit:1;stroke-dasharray:none"
       inkscape:label="macska"
       d="m 22.623718,38.668205 c 1.86394,-2.262013 4.75648,-1.856059 5.97723,-0.808913 -1.30455,1.554345 -3.48074,2.695228 -5.97723,0.808913 z m 9.86605,-1.208358 c 0.9391,-1.305693 3.6541,-2.382907 5.99929,-0.624753 -1.98073,2.422266 -4.36472,1.827268 -5.99929,0.624753 z m -4.87392,7.951664 -3.75616,1.504152 m 3.67625,-2.954684 -4.26934,0.348836 m 3.97591,-2.01716 -3.69916,-0.368352 m 10.31087,3.146016 3.90309,0.506182 m -3.67086,-2.480782 4.37131,-0.279922 m -4.6456,-1.228464 4.55276,-1.112807 m -8.15957,4.073648 c -0.26846,-0.182468 -0.42598,-0.0079 -0.56395,-0.75443 -0.26571,-0.569913 -0.27196,-0.673971 -0.38825,-1.185487 l 0.78205,-0.321597 1.96218,-0.03034 0.0888,1.123306 -0.44463,0.837301 -0.68522,0.325461 -0.75103,0.0058 z m 5.09014,-12.143277 4.76991,-5.430247 0.58382,7.219006 z m -15.57145,2.237792 -0.64681,-6.183537 4.54597,4.408523 z m 1.67106,16.736262 c -3.51444,-1.278056 -7.289142,-8.222753 -4.2172,-13.701777 4.55079,-8.116694 21.9925,-6.754097 25.73131,-1.428268 2.65386,3.780358 4.87729,13.607512 -1.23653,13.958166 -6.76009,0.38772 -20.29557,1.009978 -20.27758,1.171879 z m 20.60674,11.550965 -1.90659,11.357794 c 2.5378,2.47426 1.3765,3.41909 -0.38845,3.64637 -0.56444,0.18585 -1.219,0.0422 -1.86455,-0.17673 -1.53983,-0.52222 -2.03695,0.88822 -2.44483,-3.01397 l -1.49055,-14.986414 m -5.38928,0.566577 2.04423,14.790967 c 0.51494,3.85571 -0.23523,2.60608 -1.46611,3.45396 -0.51603,0.35545 -1.05676,0.64029 -1.59225,0.58713 -1.59536,0.17509 -2.82278,-0.47691 -1.15473,-3.43099 l -4.20637,-10.53122 m 13.49755,11.4349 c -1.58256,0.19045 -3.21875,0.31732 -4.81389,0.38367 m -5.16422,-0.005 c -2.45728,-0.1211 -4.44017,-0.42353 -5.41176,-0.88995 -2.70886,-3.0363 -3.31065,-3.64427 -3.30722,-8.646244 0.003,-5.001976 1.61764,-13.023178 4.67968,-16.188144 l 20.23813,-1.114376 c 0,0 13.49772,18.383331 2.34767,24.295624 -0.80828,0.42859 -1.82253,0.80127 -2.97552,1.12023 M 17.693068,72.58647 C 10.60525,72.98 9.5273979,75.6843 9.0157179,69.43551 c -0.04488,-0.548561 0.01073,-2.355627 0.08192,-4.489723 0.06754,-2.025043 2.1103621,-6.161227 0.512576,-8.794692 -0.650572,-1.072283 -1.054985,-1.28502 -1.506395,-1.733703 -0.66217,-0.652247 -1.207286,-0.756282 -1.678176,-0.614898 -0.440696,0.132298 -0.712736,0.468244 -0.712736,0.468244 0,0 -0.387234,0.197179 -0.598432,0.607762 -0.197053,0.38308 -0.277872,1.067762 0.598326,1.94438 0.818014,0.813115 0.552595,0.353885 0.997724,1.087542 0.66323,1.093127 -0.907635,4.072972 -1.002686,6.922302 -0.07112,2.132236 -0.144898,3.995187 -0.07248,4.879581 0.843527,10.301465 9.0075551,6.738225 14.3575491,6.436875"
       sodipodi:nodetypes="ccccccccccccccccccccccccccccccccccccccssccccsccccsccccccccccsccccccccscscsc" />
    <g
       id="g1"
       transform="matrix(0.89264289,0,0,1,8.7775622,5.41381)">
      <path
         style="fill:none;stroke:#ffffff;stroke-width:1;stroke-linecap:round;stroke-linejoin:round;stroke-miterlimit:1;stroke-dasharray:none"
         d="m 53.609171,16.375 c 1.908356,3.72682 -1.88605,4.281876 0.177566,7.373123 2.13957,3.205025 -1.433786,3.65171 0.69972,7.381172"
         id="path3"
         sodipodi:nodetypes="csc" />
      <use
         x="0"
         y="0"
         xlink:href="#path3"
         id="use7"
         transform="translate(4.992428)" />
      <use
         x="0"
         y="0"
         xlink:href="#path3"
         id="use8-9"
         transform="translate(9.984856)" />
      <use
         x="0"
         y="0"
         xlink:href="#path3"
         id="use9"
         transform="translate(14.977284)" />
    </g>
  </g>
</svg>
