<?xml version="1.0" encoding="UTF-8" standalone="no"?>
<!-- Created with Inkscape (http://www.inkscape.org/) -->

<svg
   width="800"
   height="500"
   viewBox="0 0 211.66666 132.29167"
   version="1.1"
   id="svg1"
   inkscape:version="1.3 (0e150ed6c4, 2023-07-21)"
   sodipodi:docname="hero-image.svg"
   inkscape:export-filename="hero-image.png"
   inkscape:export-xdpi="96"
   inkscape:export-ydpi="96"
   xmlns:inkscape="http://www.inkscape.org/namespaces/inkscape"
   xmlns:sodipodi="http://sodipodi.sourceforge.net/DTD/sodipodi-0.dtd"
   xmlns:xlink="http://www.w3.org/1999/xlink"
   xmlns="http://www.w3.org/2000/svg"
   xmlns:svg="http://www.w3.org/2000/svg">
  <sodipodi:namedview
     id="namedview1"
     pagecolor="#ffffff"
     bordercolor="#000000"
     borderopacity="0.25"
     inkscape:showpageshadow="2"
     inkscape:pageopacity="0.0"
     inkscape:pagecheckerboard="0"
     inkscape:deskcolor="#d1d1d1"
     inkscape:document-units="px"
     inkscape:zoom="0.82938412"
     inkscape:cx="422.60274"
     inkscape:cy="4.2199988"
     inkscape:window-width="1920"
     inkscape:window-height="1166"
     inkscape:window-x="-11"
     inkscape:window-y="-11"
     inkscape:window-maximized="1"
     inkscape:current-layer="layer1"
     inkscape:export-bgcolor="#000000ff" />
  <defs
     id="defs1">
    <rect
       x="469.76524"
       y="227.63578"
       width="300.53969"
       height="122.22649"
       id="rect5" />
    <rect
       x="43.480994"
       y="35.807877"
       width="512.39367"
       height="166.25086"
       id="rect2" />
  </defs>
  <g
     inkscape:label="Réteg 1"
     inkscape:groupmode="layer"
     id="layer1">
    <rect
       style="fill:#000000;stroke:none;stroke-width:1.18586;stroke-linecap:round;stroke-linejoin:round;stroke-miterlimit:1"
       id="rect1"
       width="211.66667"
       height="132.29167"
       x="-5.7529296e-06"
       y="-5.50293e-06" />
    <g
       id="g40"
       transform="matrix(1.5907318,0,0,1.5907318,-49.970035,80.571556)">
      <g
         id="use8"
         transform="translate(79.375116,-2.190727)">
        <path
           style="fill:#000000;fill-opacity:1;stroke:#ffffff;stroke-width:1.3223;stroke-miterlimit:1"
           d="m 4.4035631,13.482667 c 0.7013299,6.502078 0.7428284,11.293501 8.6284879,11.293501 7.249585,0 7.500593,-4.659249 8.269454,-11.293501"
           id="path4"
           sodipodi:nodetypes="csc" />
        <ellipse
           style="fill:#000000;fill-opacity:1;stroke:#ffffff;stroke-width:1.3223;stroke-miterlimit:1"
           id="ellipse4"
           cx="12.852535"
           cy="13.482667"
           rx="8.4489717"
           ry="3.0894976" />
        <path
           style="fill:none;stroke:#ffffff;stroke-width:1.3223;stroke-miterlimit:1"
           d="m 20.813512,15.3057 c 1.178496,0.184589 2.51354,0.376751 2.569456,2.310406 -0.159494,3.230076 -2.632825,2.769871 -3.168546,2.498939"
           id="path5"
           sodipodi:nodetypes="ccc" />
      </g>
      <path
         style="fill:#ffffff;stroke:#ffffff;stroke-width:0.438685;stroke-miterlimit:1;stroke-dasharray:none"
         d="m 85.722045,13.60965 c 4.697693,-2.51875 8.316317,-2.485589 12.806307,0 -3.840802,0.884108 -7.973232,1.165762 -12.806307,0 z"
         id="path38"
         sodipodi:nodetypes="ccc" />
    </g>
    <path
       id="path48"
       style="fill:#000000;stroke:#ffffff;stroke-width:0.999677;stroke-linecap:round;stroke-linejoin:round;stroke-miterlimit:1;stroke-dasharray:none"
       inkscape:label="macska"
       d="m 33.288355,65.017726 c 2.618742,-3.178015 6.682616,-2.60767 8.397709,-1.136482 -1.832827,2.183777 -4.890266,3.78666 -8.397709,1.136482 z m 13.861307,-1.697683 c 1.319389,-1.834433 5.133828,-3.347865 8.428703,-0.877746 -2.782827,3.403162 -6.132214,2.56722 -8.428703,0.877746 z m -6.847614,11.171691 -5.277217,2.113259 m 5.164947,-4.151184 -5.998209,0.490097 m 5.585955,-2.834009 -5.197135,-0.517516 m 14.486257,4.419996 5.483647,0.71116 m -5.157375,-3.485375 6.141472,-0.393276 m -6.526836,-1.725931 6.396401,-1.563438 m -11.463789,5.723272 c -0.377173,-0.256359 -0.598481,-0.0111 -0.792321,-1.059937 -0.37331,-0.800699 -0.382091,-0.946895 -0.545472,-1.66555 l 1.098741,-0.451827 2.756765,-0.04263 0.124759,1.578189 -0.624683,1.176366 -0.962699,0.457257 -1.05516,0.0081 z m 7.151393,-17.060698 6.701485,-7.629226 0.820238,10.142343 z m -21.87711,3.143986 -0.908736,-8.687561 6.386861,6.193755 z m 2.347756,23.513612 C 26.624592,81.080085 21.321324,71.323132 25.637249,63.625377 c 6.393633,-11.40355 30.898365,-9.489169 36.151206,-2.006645 3.728541,5.311214 6.852349,19.117875 -1.737263,19.610526 -9.497589,0.544727 -28.514262,1.418969 -28.488987,1.646431 z m 28.951441,16.228525 -2.678664,15.957146 c 3.565482,3.47621 1.933914,4.80365 -0.545753,5.12296 -0.79301,0.26111 -1.712634,0.0593 -2.6196,-0.24829 -2.163384,-0.7337 -2.861813,1.2479 -3.434864,-4.23448 L 49.140617,94.646378 m -7.571669,0.796017 2.872041,20.780575 c 0.723465,5.41708 -0.330487,3.66141 -2.059812,4.85264 -0.724996,0.49939 -1.484695,0.89958 -2.237031,0.82489 -2.241402,0.24599 -3.965865,-0.67004 -1.622338,-4.82037 l -5.90974,-14.79584 m 18.963384,16.06546 c -2.223418,0.26758 -4.522183,0.44582 -6.763276,0.53904 m -7.255471,-0.007 c -3.452355,-0.17014 -6.238217,-0.59504 -7.603252,-1.25034 -3.805813,-4.26585 -4.651298,-5.12002 -4.646479,-12.14755 0.0042,-7.027516 2.272703,-18.296909 6.574716,-22.743528 l 28.433563,-1.565643 c 0,0 18.963622,25.827661 3.298359,34.134141 -1.135593,0.60215 -2.560564,1.12575 -4.180457,1.57387 M 26.361038,112.6712 c -9.958031,0.55289 -11.472359,4.3523 -12.191244,-4.42694 -0.06305,-0.7707 0.01508,-3.30955 0.115094,-6.30785 0.09489,-2.845079 2.964953,-8.656205 0.720143,-12.356096 -0.914021,-1.506505 -1.482201,-1.805389 -2.116409,-2.435767 -0.930316,-0.916374 -1.696177,-1.062538 -2.357754,-0.863901 -0.6191555,0.185872 -1.0013582,0.65786 -1.0013582,0.65786 0,0 -0.5440444,0.277026 -0.840767,0.853875 -0.2768497,0.538208 -0.3903963,1.500152 0.8406181,2.731757 1.1492691,1.142386 0.7763681,0.497191 1.4017521,1.527942 0.931805,1.535795 -1.2751815,5.722321 -1.4087234,9.72549 -0.09992,2.99569 -0.2035745,5.61304 -0.1018308,6.85556 1.1851132,14.47305 12.6551642,9.46688 20.1716392,9.0435"
       sodipodi:nodetypes="ccccccccccccccccccccccccccccccccccccccssccccsccccsccccccccccsccccccccscscsc" />
    <g
       id="g1"
       transform="matrix(1.4199554,0,0,1.5907318,9.6762485,36.413943)">
      <path
         style="fill:none;stroke:#ffffff;stroke-width:1;stroke-linecap:round;stroke-linejoin:round;stroke-miterlimit:1;stroke-dasharray:none"
         d="m 53.609171,16.375 c 1.908356,3.72682 -1.88605,4.281876 0.177566,7.373123 2.13957,3.205025 -1.433786,3.65171 0.69972,7.381172"
         id="path3"
         sodipodi:nodetypes="csc" />
      <use
         x="0"
         y="0"
         xlink:href="#path3"
         id="use7"
         transform="translate(4.992428)" />
      <use
         x="0"
         y="0"
         xlink:href="#path3"
         id="use8-9"
         transform="translate(9.984856)" />
      <use
         x="0"
         y="0"
         xlink:href="#path3"
         id="use9"
         transform="translate(14.977284)" />
    </g>
    <text
       xml:space="preserve"
       transform="scale(0.26458333)"
       id="text1"
       style="font-size:66.6667px;line-height:61.1333px;font-family:'Cascadia Code';-inkscape-font-specification:'Cascadia Code';text-align:center;letter-spacing:1px;word-spacing:0px;white-space:pre;shape-inside:url(#rect2);display:inline;fill:#ffffff;fill-opacity:1;stroke:none;stroke-width:2.26772;stroke-linecap:round;stroke-linejoin:round;stroke-miterlimit:1" />
    <text
       xml:space="preserve"
       style="font-size:29.7318px;line-height:27.1696px;font-family:'Cascadia Code';-inkscape-font-specification:'Cascadia Code';text-align:center;letter-spacing:-1.59278px;word-spacing:0px;text-anchor:middle;fill:#ffffff;fill-opacity:1;stroke:none;stroke-width:0.722396;stroke-linecap:round;stroke-linejoin:round;stroke-miterlimit:1"
       x="129.03548"
       y="30.558289"
       id="text3"
       transform="scale(0.81810379,1.2223388)"><tspan
         id="tspan3"
         style="font-style:normal;font-variant:normal;font-weight:bold;font-stretch:normal;font-size:29.7318px;line-height:27.1696px;font-family:'Cascadia Code';-inkscape-font-specification:'Cascadia Code Bold';letter-spacing:-1.59278px;stroke-width:0.722395"
         x="128.23909"
         y="30.558289"
         sodipodi:role="line">Black Cat Caffee</tspan></text>
    <g
       id="g6"
       transform="rotate(17.088156,104.41558,94.885332)">
      <rect
         style="fill:#000000;fill-opacity:1;stroke:#ffffff;stroke-width:2.25213;stroke-linecap:round;stroke-linejoin:round;stroke-miterlimit:1;stroke-dasharray:none;stroke-opacity:1"
         id="rect4"
         width="64.2752"
         height="32.339092"
         x="131.91335"
         y="60.228634" />
      <text
         xml:space="preserve"
         transform="matrix(0.26458333,0,0,0.26458333,0.55464269,3.4276516)"
         id="text4"
         style="font-style:normal;font-variant:normal;font-weight:bold;font-stretch:normal;font-size:93.3333px;line-height:85.29px;font-family:'Cascadia Code';-inkscape-font-specification:'Cascadia Code Bold';text-align:center;letter-spacing:-5px;word-spacing:0px;white-space:pre;shape-inside:url(#rect5);display:inline;fill:#ffffff;fill-opacity:1;stroke:none;stroke-width:9.468;stroke-linecap:round;stroke-linejoin:round;stroke-miterlimit:1;stroke-dasharray:none;stroke-opacity:1"><tspan
           x="518.1602"
           y="298.12485"
           id="tspan1">Open</tspan></text>
    </g>
    <text
       xml:space="preserve"
       style="font-style:normal;font-variant:normal;font-weight:bold;font-stretch:normal;font-size:24.6944px;line-height:22.5663px;font-family:'Cascadia Code';-inkscape-font-specification:'Cascadia Code Bold';text-align:center;letter-spacing:-1.32292px;word-spacing:0px;text-anchor:middle;fill:#ffffff;fill-opacity:1;stroke:none;stroke-width:2.50507;stroke-linecap:round;stroke-linejoin:round;stroke-miterlimit:1;stroke-dasharray:none;stroke-opacity:1"
       x="169.40714"
       y="48.0891"
       id="text6"><tspan
         sodipodi:role="line"
         id="tspan6"
         style="stroke-width:2.50507"
         x="169.40714"
         y="48.0891" /></text>
    <circle
       style="fill:#ffffff;fill-opacity:1;stroke:none;stroke-width:2.25213;stroke-linecap:round;stroke-linejoin:round;stroke-miterlimit:1;stroke-dasharray:none;stroke-opacity:1"
       id="path6"
       cx="170.87337"
       cy="55.378765"
       r="2.5941172" />
    <path
       style="fill:none;fill-opacity:1;stroke:#ffffff;stroke-width:0.929217;stroke-linecap:butt;stroke-linejoin:bevel;stroke-miterlimit:1;stroke-dasharray:none;stroke-opacity:1"
       d="m 140.88304,69.838614 29.99033,-17.053966 1.33388,0.369212 30.11348,35.571554"
       id="path7"
       sodipodi:nodetypes="cccc" />
    <text
       xml:space="preserve"
       style="font-style:normal;font-variant:normal;font-weight:bold;font-stretch:normal;font-size:24.6944px;line-height:22.5663px;font-family:'Cascadia Code';-inkscape-font-specification:'Cascadia Code Bold';text-align:center;letter-spacing:-1.32292px;word-spacing:0px;text-anchor:middle;fill:none;fill-opacity:1;stroke:#ffffff;stroke-width:0.929217;stroke-linecap:butt;stroke-linejoin:bevel;stroke-miterlimit:1;stroke-dasharray:none;stroke-opacity:1"
       x="198.42535"
       y="26.15897"
       id="text7"><tspan
         sodipodi:role="line"
         id="tspan7"
         style="stroke-width:0.929217"></tspan></text>
  </g>
</svg>
