<?xml version="1.0" encoding="UTF-8" standalone="no"?>
<!-- Created with Inkscape (http://www.inkscape.org/) -->

<svg
   width="200"
   height="400"
   viewBox="0 0 52.916665 105.83333"
   version="1.1"
   id="svg1"
   inkscape:version="1.3 (0e150ed6c4, 2023-07-21)"
   sodipodi:docname="ember.svg"
   xmlns:inkscape="http://www.inkscape.org/namespaces/inkscape"
   xmlns:sodipodi="http://sodipodi.sourceforge.net/DTD/sodipodi-0.dtd"
   xmlns="http://www.w3.org/2000/svg"
   xmlns:svg="http://www.w3.org/2000/svg">
  <sodipodi:namedview
     id="namedview1"
     pagecolor="#000000"
     bordercolor="#000000"
     borderopacity="0.25"
     inkscape:showpageshadow="2"
     inkscape:pageopacity="0.0"
     inkscape:pagecheckerboard="0"
     inkscape:deskcolor="#d1d1d1"
     inkscape:document-units="px"
     inkscape:zoom="0.42270973"
     inkscape:cx="765.30058"
     inkscape:cy="457.76094"
     inkscape:window-width="1920"
     inkscape:window-height="1166"
     inkscape:window-x="-11"
     inkscape:window-y="-11"
     inkscape:window-maximized="1"
     inkscape:current-layer="layer2" />
  <defs
     id="defs1" />
  <g
     inkscape:groupmode="layer"
     id="layer2"
     inkscape:label="Réteg 2">
    <path
       id="path11"
       style="stroke:#ffffff;stroke-width:0.600001;stroke-linecap:round;stroke-linejoin:round;stroke-miterlimit:1"
       d="m 43.426064,48.459415 c -0.374443,6.021197 -0.930163,11.88023 -5.759094,15.025218 -3.052398,1.987966 -5.937127,5.300145 -9.772958,4.614086 -3.32816,-0.595259 -7.322387,-1.629828 -9.591851,-4.191338 -3.031443,-3.421546 -6.160698,-9.230148 -5.940201,-15.447966 0.07267,-2.049264 -0.306402,-4.969708 0.690798,-6.537946 4.572425,-7.190782 13.039852,-13.903269 14.619957,-13.322653 2.038158,0.748929 5.890742,3.249919 8.717987,4.954204 3.350803,2.01989 7.538438,6.816723 7.035362,14.906395 z"
       sodipodi:nodetypes="sssssssss" />
    <path
       style="fill:#000000;stroke:#ffffff;stroke-width:0.600001;stroke-linecap:round;stroke-linejoin:round;stroke-miterlimit:1"
       d="m 31.362938,67.388133 c 0.238522,10.867638 0.991192,21.906658 0.715566,32.602913 2.7496,-0.216132 5.52803,-0.518756 8.136987,-0.312959 0.609977,-0.160999 0.850388,-1.248286 0.447681,-3.912016 -4.704373,0.0064 -5.414358,-2.234 -5.455058,-4.850894 0.405115,-7.952968 0.193066,-16.13036 -1.022522,-24.672674 z"
       id="path12"
       sodipodi:nodetypes="ccccccc" />
    <path
       style="fill:#000000;stroke:#ffffff;stroke-width:0.600001;stroke-linecap:round;stroke-linejoin:round;stroke-miterlimit:1"
       d="m 24.119012,67.388133 c -0.238522,10.867638 -0.991192,21.906658 -0.715566,32.602913 -2.7496,-0.216132 -5.52803,-0.518756 -8.136987,-0.312959 -0.609977,-0.160999 -0.850388,-1.248286 -0.447681,-3.912016 4.704373,0.0064 5.414358,-2.234 5.455058,-4.850894 -0.405115,-7.952968 -0.193066,-16.13036 1.022522,-24.672674 z"
       id="path13"
       sodipodi:nodetypes="ccccccc" />
    <path
       style="fill:#000000;stroke:#ffffff;stroke-width:0.600001;stroke-linecap:round;stroke-linejoin:round;stroke-miterlimit:1"
       d="m 43.18862,44.440464 -3.051369,11.501318 c -2.278291,-0.420633 -6.75945,-0.456017 -11.97076,-0.290046 l 0.156483,-5.577973 c 2.718639,-0.03954 5.822938,0.692242 8.136985,-0.15648 0.473097,-4.777846 3.316594,-7.569963 5.007377,-10.953636 z"
       id="path14"
       sodipodi:nodetypes="ccccccc" />
    <path
       style="fill:#000000;stroke:#ffffff;stroke-width:0.600001;stroke-linecap:round;stroke-linejoin:round;stroke-miterlimit:1"
       d="m 13.08361,44.392783 c 0.520215,4.74477 1.648961,8.373902 3.051369,11.501319 3.590336,-0.589584 4.226666,-0.423673 12.081408,-0.400696 l -0.267131,-5.467324 c -5.934667,0.733776 -8.24554,0.5837 -8.136985,-0.15648 -0.774545,-4.113551 -2.620798,-6.723735 -4.454135,-10.511042 -1.426239,1.484141 -2.315372,2.963326 -2.274526,5.034223 z"
       id="path14-8"
       sodipodi:nodetypes="ccccccc" />
    <ellipse
       style="fill:#000000;stroke:#ffffff;stroke-width:0.586408;stroke-linecap:round;stroke-linejoin:round;stroke-miterlimit:1"
       id="path15"
       cx="27.697052"
       cy="22.063751"
       rx="9.3173857"
       ry="8.0655422" />
    <path
       style="fill:#000000;stroke:#ffffff;stroke-width:0.600001;stroke-linecap:round;stroke-linejoin:round;stroke-miterlimit:1"
       d="m 14.865648,16.586934 c 8.055596,-0.50655 16.177397,-0.781381 24.645681,0.15648 1.335032,-1.512645 0.709203,-3.025289 0,-4.537934 -2.002114,-0.94075 -3.734662,-0.803236 -5.320339,-0.07824 -0.842344,-2.4663978 -1.079038,-4.9933604 0.156482,-7.6675446 -3.885933,0.781246 -7.771865,0.2654298 -11.657798,-0.3912013 0.158269,3.2509861 0.280849,6.4424699 -0.625922,7.6675449 -2.346785,-0.525829 -4.652465,-1.462714 -7.198104,0 -1.118716,1.616965 -0.742635,3.233931 0,4.850895 z"
       id="path16"
       sodipodi:nodetypes="ccccccccc" />
  </g>
  <g
     inkscape:label="Réteg 1"
     inkscape:groupmode="layer"
     id="layer1"
     style="display:none;opacity:0.5"
     sodipodi:insensitive="true">
    <path
       style="fill:#000000;stroke:#ffffff;stroke-width:0.600001;stroke-linecap:round;stroke-linejoin:round;stroke-miterlimit:1"
       d="m 28.948893,29.261855 c -7.907083,-0.551624 -11.066535,0.20401 -14.239725,8.136985 -1.544538,3.861348 -2.089671,8.24138 -2.347208,12.361961 -0.222378,3.558048 -0.108757,9.183523 1.877766,12.36196 0.963748,1.541997 2.822647,2.304359 4.381455,3.129611 5.847488,3.095728 13.671035,4.210364 18.62118,-1.564804 2.694331,-3.143388 4.257145,-16.739034 3.44257,-20.811908 -0.299387,-1.496941 -1.933911,-3.206462 -2.660168,-4.537935 -2.183371,-4.002847 -3.95024,-9.07587 -9.07587,-9.07587 z"
       id="path1" />
    <path
       style="fill:#000000;stroke:#ffffff;stroke-width:0.600001;stroke-linecap:round;stroke-linejoin:round;stroke-miterlimit:1"
       d="m 31.362938,67.388133 c 1.490038,4.673103 1.995503,9.459807 1.028528,14.294691 -0.842661,4.213302 -2.667947,14.775741 -0.312962,18.30822 1.01913,1.528696 7.367875,1.225266 8.136987,-0.31296 1.327328,-2.654657 -6.629312,-1.464202 -5.007377,-8.76291 0.910908,-4.099078 0.590542,-7.915206 0,-12.048998 -0.608518,-4.259617 1.014146,-9.076584 -1.022522,-12.623673"
       id="path2" />
    <path
       style="fill:#000000;stroke:#ffffff;stroke-width:0.600001;stroke-linecap:round;stroke-linejoin:round;stroke-miterlimit:1"
       d="m 22.458379,66.874987 c -0.277782,5.29781 -0.240118,10.616372 -0.551108,15.903202 -0.353075,6.002279 1.060195,13.11565 -4.381454,16.743415 -1.46927,0.979516 -2.6753,1.351116 -4.381454,0.782406 -1.075205,-0.358406 -2.797176,0.0292 -3.4425714,-0.938888 -0.4526947,-0.67904 -0.1225654,-1.768296 0,-2.503686 0.5908014,-3.544808 4.4584314,0.0026 5.6332984,-2.347209 1.511257,-3.022515 0.743488,-7.767304 1.095363,-11.110116 0.238424,-2.265024 0.809024,-4.358082 1.251844,-6.572181 0.374206,-1.871028 -0.814127,-11.579561 0.938884,-11.579556"
       id="path3" />
    <path
       style="fill:#000000;stroke:#ffffff;stroke-width:0.600001;stroke-linecap:round;stroke-linejoin:round;stroke-miterlimit:1"
       d="m 40.684931,42.87566 c 0.260802,-0.31296 0.407958,-0.778407 0.782405,-0.938885 0.479933,-0.205687 1.616805,2.545006 1.721284,2.816651 0.862861,2.243442 2.84852,9.432301 0.312962,10.953634 -1.600933,0.960559 -11.920619,0 -13.926767,0"
       id="path4" />
    <path
       style="fill:#000000;stroke:#ffffff;stroke-width:0.600001;stroke-linecap:round;stroke-linejoin:round;stroke-miterlimit:1"
       d="M 14.709168,37.39884 C -0.97892636,47.953474 10.126317,55.23762 22.75838,55.23762"
       id="path5" />
    <path
       style="fill:#000000;stroke:#ffffff;stroke-width:0.600001;stroke-linecap:round;stroke-linejoin:round;stroke-miterlimit:1"
       d="m 38.024763,38.337725 c -0.562811,4.108132 -1.241624,9.538499 -4.537935,11.736038 -2.107457,1.404972 -5.322115,0.15648 -4.212013,0.15648"
       id="path6" />
    <path
       style="fill:#000000;stroke:#ffffff;stroke-width:0.600001;stroke-linecap:round;stroke-linejoin:round;stroke-miterlimit:1"
       d="m 14.709168,37.39884 c -2.26973,12.418301 -6.5984036,12.518443 8.349213,12.518443 0.655432,-3.810283 3.533678,-2.024621 2.760902,-1.251846 -0.280891,0.280891 -1.095363,0.0722 -1.095363,0.469442 0,0.06567 1.0081,-0.08726 1.095363,0 0.134431,0.134431 -0.360349,2.238115 -0.625922,2.503688 -0.37971,0.379709 0.544595,1.139113 0.156481,1.721285 -0.785703,1.178554 -3.448183,0.121524 -2.591462,1.877768"
       id="path7" />
    <path
       style="fill:#000000;stroke:#ffffff;stroke-width:0.600001;stroke-linecap:round;stroke-linejoin:round;stroke-miterlimit:1"
       d="m 29.274815,50.230243 c -0.882574,-0.428069 -1.570916,-2.507112 -2.829609,-1.877766 -1.957923,0.978961 0.948051,1.724342 0.938883,1.721286 -0.601993,-0.200665 -1.481362,-0.808466 -1.877766,-0.312962 -0.794945,0.993682 0.262423,2.498823 0.312961,2.347208 0.162693,-0.488082 -0.329108,-2.638639 -1.251844,-1.408324 -0.931521,1.242028 2.660169,2.802387 2.660169,3.442571 0,0.164944 0.30171,0.547642 0.15648,0.469442 -0.701022,-0.377476 -1.356164,-0.834565 -2.034247,-1.251844"
       id="path8" />
    <path
       style="fill:#000000;stroke:#ffffff;stroke-width:0.600001;stroke-linecap:round;stroke-linejoin:round;stroke-miterlimit:1"
       d="m 23.058381,29.731298 c -0.759927,0.226419 -1.586707,-0.342559 -2.246473,-0.782405 -1.112742,-0.741828 -2.141834,-1.178502 -2.81665,-2.190726 -0.924263,-1.386395 0.757166,-10.634365 2.660169,-11.110116 6.216728,-1.554182 15.961011,0.356886 15.961011,8.293467 0,0.773423 0.396955,3.515059 -0.156479,4.068493 -1.031203,1.031203 -3.238553,1.206431 -4.389353,2.021123 -2.952043,-0.653854 -6.023447,0.22973 -9.012225,-0.299836 z"
       id="path9" />
    <path
       style="fill:#000000;stroke:#ffffff;stroke-width:0.600001;stroke-linecap:round;stroke-linejoin:round;stroke-miterlimit:1"
       d="m 14.882547,16.586934 c 9.379665,0.760815 18.488854,1.877766 27.836633,1.877766 -0.543342,-0.950057 0.857707,-3.523746 0.156478,-4.224974 -0.431964,-0.431965 -9.114307,2.621731 -11.423076,0.312961 -1.210136,-1.210136 1.184377,-7.1765564 0.15648,-9.2323498 -0.50264,-1.0052799 -3.852198,-0.9388831 -4.850896,-0.9388831 -0.829392,0 -5.228153,-1.0310671 -5.946259,-0.312961 -0.285009,0.2850095 -0.469441,9.4219229 -0.469441,10.3277129 0,1.823012 -4.968125,-1.213118 -5.320338,-0.15648 -0.181112,0.543337 -0.0567,1.789701 -0.139581,2.347208 z"
       id="path10" />
  </g>
</svg>
