<?xml version="1.0" encoding="UTF-8" standalone="no"?>
<!-- Created with Inkscape (http://www.inkscape.org/) -->

<svg
   width="200mm"
   height="200mm"
   viewBox="0 0 200 200"
   version="1.1"
   id="svg1"
   inkscape:version="1.3 (0e150ed6c4, 2023-07-21)"
   sodipodi:docname="féligtelifőzőcsésze.svg"
   xmlns:inkscape="http://www.inkscape.org/namespaces/inkscape"
   xmlns:sodipodi="http://sodipodi.sourceforge.net/DTD/sodipodi-0.dtd"
   xmlns="http://www.w3.org/2000/svg"
   xmlns:svg="http://www.w3.org/2000/svg">
  <sodipodi:namedview
     id="namedview1"
     pagecolor="#ff0000"
     bordercolor="#000000"
     borderopacity="0.25"
     inkscape:showpageshadow="2"
     inkscape:pageopacity="0.0"
     inkscape:pagecheckerboard="0"
     inkscape:deskcolor="#d1d1d1"
     inkscape:document-units="mm"
     inkscape:zoom="0.82938412"
     inkscape:cx="125.99711"
     inkscape:cy="216.42565"
     inkscape:window-width="1920"
     inkscape:window-height="1166"
     inkscape:window-x="-11"
     inkscape:window-y="-11"
     inkscape:window-maximized="1"
     inkscape:current-layer="layer1" />
  <defs
     id="defs1" />
  <g
     inkscape:label="Réteg 1"
     inkscape:groupmode="layer"
     id="layer1">
    <path
       id="path121"
       style="stroke-width:0.47632096;stroke-dasharray:none;fill:#000000;fill-opacity:1;stroke:#ffffff;stroke-linecap:round;stroke-linejoin:round;stroke-miterlimit:1;stroke-opacity:1"
       d="m 422.80529,64.190815 -1.21051,0.907884 -2.7909,-2.45465 1.32465,-0.824666 z m -6.34823,-3.854998 2.56598,2.171795 m -1.83318,-2.72172 2.58634,2.252835 m -1.80996,-0.903791 0.0304,-3.492364 c 0.0185,1.00763 -1.76139,1.916647 -3.93417,1.916646 -2.17278,-2e-6 -3.94914,-0.816846 -3.96762,-1.824474 l 0.003,3.400192 m 7.89879,-3.492364 c 0,1.058535 -1.76139,1.916647 -3.93417,1.916646 -2.17278,-2e-6 -3.93416,-0.858113 -3.93416,-1.916646 0,-1.058533 1.76138,-1.916644 3.93416,-1.916646 2.17278,-1e-6 3.93417,0.858111 3.93417,1.916646 z m -0.0314,3.492365 c 0,1.058533 -1.76138,1.916644 -3.93416,1.916646 -2.17278,10e-7 -3.93417,-0.858111 -3.93417,-1.916646"
       transform="matrix(14.695973,0,0.24473158,14.695973,-6035.0577,-784.83211)" />
    <ellipse
       style="fill:#ffffff;fill-opacity:1;stroke:none;stroke-width:0.398573;stroke-linecap:round;stroke-linejoin:round;stroke-miterlimit:1"
       id="path1"
       cx="64.10096"
       cy="81.723068"
       rx="34.521114"
       ry="10.080064" />
  </g>
</svg>
