<?xml version="1.0" encoding="UTF-8" standalone="no"?>
<!-- Created with Inkscape (http://www.inkscape.org/) -->

<svg
   width="423.58865mm"
   height="264.83865mm"
   viewBox="0 0 423.58865 264.83866"
   version="1.1"
   id="svg1"
   inkscape:version="1.3 (0e150ed6c4, 2023-07-21)"
   sodipodi:docname="hatter.svg"
   xmlns:inkscape="http://www.inkscape.org/namespaces/inkscape"
   xmlns:sodipodi="http://sodipodi.sourceforge.net/DTD/sodipodi-0.dtd"
   xmlns="http://www.w3.org/2000/svg"
   xmlns:svg="http://www.w3.org/2000/svg">
  <sodipodi:namedview
     id="namedview1"
     pagecolor="#000000"
     bordercolor="#000000"
     borderopacity="0.25"
     inkscape:showpageshadow="2"
     inkscape:pageopacity="0.0"
     inkscape:pagecheckerboard="0"
     inkscape:deskcolor="#d1d1d1"
     inkscape:document-units="px"
     inkscape:zoom="4"
     inkscape:cx="1120.875"
     inkscape:cy="322.375"
     inkscape:window-width="1920"
     inkscape:window-height="1166"
     inkscape:window-x="-11"
     inkscape:window-y="-11"
     inkscape:window-maximized="1"
     inkscape:current-layer="layer1"
     showguides="true">
    <sodipodi:guide
       position="517.7906,379.24462"
       orientation="0,-1"
       id="guide1"
       inkscape:locked="false" />
    <sodipodi:guide
       position="517.7906,379.24462"
       orientation="1,0"
       id="guide2"
       inkscape:locked="false" />
  </sodipodi:namedview>
  <defs
     id="defs1" />
  <g
     inkscape:label="Réteg 1"
     inkscape:groupmode="layer"
     id="layer1"
     transform="translate(286.59187,154.33586)">
    <path
       id="path19"
       style="fill:#000000;fill-opacity:1;stroke:#ffffff;stroke-width:1.00012502;stroke-linecap:round;stroke-linejoin:round;stroke-miterlimit:1;stroke-dasharray:none;stroke-opacity:1"
       d="m -6.6651834,-81.742633 v 40.218387 L 71.982817,67.996824 V 27.778437 Z m 0,0 78.6480004,109.52107 34.689513,-4e-6 -78.647992,-109.52107 z m 78.6480004,109.52107 34.689523,-3e-6 v 40.218388 l -34.689523,2e-6 z m 34.689523,40.218385 30.47728,42.441048 M -286.59187,-41.524246 H -6.6651834 M 28.024338,-81.742637 v -72.592993" />
    <g
       id="g11"
       transform="matrix(1,0,0.01665297,1,4.4451843,3.1564906)"
       style="stroke-width:0.50000001;stroke-dasharray:none" />
    <rect
       style="fill:#000000;stroke:#ffffff;stroke-width:0.502118;stroke-linecap:round;stroke-linejoin:round;stroke-miterlimit:1"
       id="rect1"
       width="27.648916"
       height="40.927391"
       x="-56.536659"
       y="-101.07162" />
    <path
       style="fill:#000000;stroke:#ffffff;stroke-width:0.482721;stroke-linecap:round;stroke-linejoin:round;stroke-miterlimit:1"
       d="m -35.369989,-101.07162 v 8.999109 31.928308"
       id="path2" />
    <path
       style="fill:#000000;stroke:#ffffff;stroke-width:0.500063;stroke-linecap:round;stroke-linejoin:round;stroke-miterlimit:1"
       d="m -56.536659,-86.867108 h 27.516625 l -6.482247,-7.805208 h -21.034378 z"
       id="path1" />
    <path
       style="fill:#000000;stroke:#ffffff;stroke-width:0.500063;stroke-linecap:round;stroke-linejoin:round;stroke-miterlimit:1"
       d="m -56.536658,-73.637952 h 27.516625 l -6.482247,-7.805208 h -21.034378 z"
       id="path3" />
    <path
       style="fill:#000000;stroke:#ffffff;stroke-width:0.500063;stroke-linecap:round;stroke-linejoin:round;stroke-miterlimit:1"
       d="m -56.404366,-60.144203 h 27.516625 l -6.482247,-7.805208 h -21.034378 z"
       id="path4" />
    <g
       id="g4"
       transform="matrix(0.52130981,0,0,0.52130981,-56.737465,-75.928423)">
      <path
         style="fill:#000000;fill-opacity:1;stroke:#ffffff;stroke-width:1.3223;stroke-miterlimit:1"
         d="m 4.4035631,13.482667 c 0.7013299,6.502078 0.7428284,11.293501 8.6284879,11.293501 7.249585,0 7.500593,-4.659249 8.269454,-11.293501"
         id="path2-8"
         sodipodi:nodetypes="csc" />
      <ellipse
         style="fill:#000000;fill-opacity:1;stroke:#ffffff;stroke-width:1.3223;stroke-miterlimit:1"
         id="path1-9"
         cx="12.852535"
         cy="13.482667"
         rx="8.4489717"
         ry="3.0894976" />
      <path
         style="fill:none;stroke:#ffffff;stroke-width:1.3223;stroke-miterlimit:1"
         d="m 20.813512,15.3057 c 1.178496,0.184589 2.51354,0.376751 2.569456,2.310406 -0.159494,3.230076 -2.632825,2.769871 -3.168546,2.498939"
         id="path3-5"
         sodipodi:nodetypes="ccc" />
    </g>
    <g
       id="g6"
       transform="matrix(0.52130981,0,0,0.52130981,-48.505563,-89.118175)">
      <path
         style="fill:#000000;fill-opacity:1;stroke:#ffffff;stroke-width:1.3223;stroke-miterlimit:1"
         d="m 4.4035631,13.482667 c 0.7013299,6.502078 0.7428284,11.293501 8.6284879,11.293501 7.249585,0 7.500593,-4.659249 8.269454,-11.293501"
         id="path5"
         sodipodi:nodetypes="csc" />
      <ellipse
         style="fill:#000000;fill-opacity:1;stroke:#ffffff;stroke-width:1.3223;stroke-miterlimit:1"
         id="ellipse5"
         cx="12.852535"
         cy="13.482667"
         rx="8.4489717"
         ry="3.0894976" />
      <path
         style="fill:none;stroke:#ffffff;stroke-width:1.3223;stroke-miterlimit:1"
         d="m 20.813512,15.3057 c 1.178496,0.184589 2.51354,0.376751 2.569456,2.310406 -0.159494,3.230076 -2.632825,2.769871 -3.168546,2.498939"
         id="path6"
         sodipodi:nodetypes="ccc" />
    </g>
  </g>
</svg>
