<?xml version="1.0" encoding="UTF-8" standalone="no"?>
<!-- Created with Inkscape (http://www.inkscape.org/) -->

<svg
   width="100"
   height="100"
   viewBox="0 0 26.458333 26.458333"
   version="1.1"
   id="svg1"
   inkscape:version="1.3 (0e150ed6c4, 2023-07-21)"
   sodipodi:docname="interact.svg"
   xmlns:inkscape="http://www.inkscape.org/namespaces/inkscape"
   xmlns:sodipodi="http://sodipodi.sourceforge.net/DTD/sodipodi-0.dtd"
   xmlns="http://www.w3.org/2000/svg"
   xmlns:svg="http://www.w3.org/2000/svg">
  <sodipodi:namedview
     id="namedview1"
     pagecolor="#000000"
     bordercolor="#000000"
     borderopacity="0.25"
     inkscape:showpageshadow="2"
     inkscape:pageopacity="0.0"
     inkscape:pagecheckerboard="0"
     inkscape:deskcolor="#d1d1d1"
     inkscape:document-units="mm"
     inkscape:zoom="4.7824147"
     inkscape:cx="74.021184"
     inkscape:cy="72.871137"
     inkscape:window-width="1920"
     inkscape:window-height="1166"
     inkscape:window-x="-11"
     inkscape:window-y="-11"
     inkscape:window-maximized="1"
     inkscape:current-layer="layer1" />
  <defs
     id="defs1">
    <rect
       x="27.810219"
       y="20.282641"
       width="43.910872"
       height="45.165468"
       id="rect3" />
  </defs>
  <g
     inkscape:label="Réteg 1"
     inkscape:groupmode="layer"
     id="layer1">
    <path
       id="path2"
       style="stroke:#ffffff;stroke-width:0.4;stroke-miterlimit:1"
       d="M 6.729305 3.6514567 C 6.6600551 3.6514567 6.5924648 3.6583365 6.5272502 3.6716105 C 6.4620352 3.6848875 6.3990073 3.7042531 6.3391479 3.7294881 C 6.279289 3.7547221 6.2223159 3.7856012 6.1691325 3.8214722 C 6.1159485 3.8573431 6.0665252 3.8982413 6.0213379 3.9434285 C 5.9761509 3.9886155 5.9352529 4.0385566 5.8993815 4.0917399 C 5.8635105 4.1449229 5.8326314 4.2013794 5.8073975 4.2612386 C 5.7821635 4.3210975 5.7627978 4.3841261 5.7495199 4.4493408 C 5.7362429 4.5145558 5.729366 4.5821457 5.729366 4.6513957 L 5.729366 17.651636 C 5.729366 17.720886 5.7362459 17.787959 5.7495199 17.853174 C 5.7627968 17.918394 5.7821625 17.981417 5.8073975 18.041276 C 5.8326314 18.101136 5.8635105 18.158108 5.8993815 18.211292 C 5.9352525 18.264471 5.9761505 18.313899 6.0213379 18.359086 C 6.0665248 18.404276 6.1159489 18.445167 6.1691325 18.481042 C 6.2223164 18.516912 6.2792887 18.547787 6.3391479 18.573027 C 6.3990069 18.598257 6.4620354 18.617624 6.5272502 18.630904 C 6.5924651 18.644184 6.6600552 18.651575 6.729305 18.651575 L 10.84585 18.651575 L 13.229167 22.778971 L 15.612484 18.651575 L 19.729028 18.651575 C 19.798278 18.651575 19.865868 18.644174 19.931083 18.630904 C 19.996293 18.617624 20.059326 18.598267 20.119185 18.573027 C 20.179045 18.547797 20.236017 18.516922 20.289201 18.481042 C 20.342381 18.445173 20.391808 18.404272 20.436995 18.359086 C 20.482185 18.313896 20.523085 18.264475 20.558952 18.211292 C 20.594822 18.158112 20.625706 18.101135 20.650936 18.041276 C 20.676166 17.981416 20.695533 17.918389 20.708813 17.853174 C 20.722093 17.787964 20.728967 17.720886 20.728967 17.651636 L 20.728967 4.6513957 C 20.728967 4.5821457 20.722063 4.5145556 20.708813 4.4493408 C 20.695533 4.3841259 20.676176 4.3210978 20.650936 4.2612386 C 20.625706 4.2013797 20.594822 4.1449234 20.558952 4.0917399 C 20.523082 4.038556 20.482182 3.988616 20.436995 3.9434285 C 20.391805 3.8982416 20.342385 3.8573434 20.289201 3.8214722 C 20.236021 3.7856012 20.179045 3.7547221 20.119185 3.7294881 C 20.059325 3.7042541 19.996298 3.6848885 19.931083 3.6716105 C 19.865863 3.6583335 19.798278 3.6514567 19.729028 3.6514567 L 6.729305 3.6514567 z " />
    <text
       xml:space="preserve"
       transform="matrix(0.32918128,0,0,0.32918128,-3.3456253,-1.7331303)"
       id="text3"
       style="font-size:40px;line-height:36.68px;font-family:'HarmonyOS Sans SC';-inkscape-font-specification:'HarmonyOS Sans SC';text-align:center;letter-spacing:1px;word-spacing:0px;white-space:pre;shape-inside:url(#rect3);fill:#000000;stroke:#ffffff;stroke-width:1.51181;stroke-miterlimit:1"><tspan
         x="38.046875"
         y="52.623203"
         id="tspan2"><tspan
           style="font-family:'Cascadia Code';-inkscape-font-specification:'Cascadia Code';fill:#ffffff"
           id="tspan1">E</tspan></tspan></text>
    <text
       xml:space="preserve"
       style="font-style:normal;font-variant:normal;font-weight:normal;font-stretch:normal;font-size:10.5833px;line-height:9.70492px;font-family:'Cascadia Code';-inkscape-font-specification:'Cascadia Code';text-align:center;letter-spacing:0.264583px;word-spacing:0px;text-anchor:middle;fill:#ffffff;fill-opacity:1;stroke:#ffffff;stroke-width:0.4;stroke-miterlimit:1"
       x="-2.7108862"
       y="25.22784"
       id="text4"><tspan
         sodipodi:role="line"
         id="tspan4"
         style="stroke-width:0.4"
         x="-2.7108862"
         y="25.22784" /></text>
  </g>
</svg>
