<?xml version="1.0" encoding="UTF-8" standalone="no"?>
<!-- Created with Inkscape (http://www.inkscape.org/) -->

<svg
   width="104.86"
   height="88.567078"
   viewBox="0 0 27.744208 23.433372"
   version="1.1"
   id="svg1"
   inkscape:version="1.3 (0e150ed6c4, 2023-07-21)"
   sodipodi:docname="kávéfőzőcsészeteli.svg"
   xmlns:inkscape="http://www.inkscape.org/namespaces/inkscape"
   xmlns:sodipodi="http://sodipodi.sourceforge.net/DTD/sodipodi-0.dtd"
   xmlns="http://www.w3.org/2000/svg"
   xmlns:svg="http://www.w3.org/2000/svg">
  <sodipodi:namedview
     id="namedview1"
     pagecolor="#000000"
     bordercolor="#000000"
     borderopacity="0.25"
     inkscape:showpageshadow="2"
     inkscape:pageopacity="0.0"
     inkscape:pagecheckerboard="0"
     inkscape:deskcolor="#d1d1d1"
     inkscape:document-units="mm"
     inkscape:zoom="9.3834102"
     inkscape:cx="71.029613"
     inkscape:cy="53.65853"
     inkscape:window-width="1920"
     inkscape:window-height="1166"
     inkscape:window-x="-11"
     inkscape:window-y="-11"
     inkscape:window-maximized="1"
     inkscape:current-layer="layer1"
     showguides="false" />
  <defs
     id="defs1" />
  <g
     inkscape:label="Réteg 1"
     inkscape:groupmode="layer"
     id="layer1"
     transform="translate(-139.96405,-157.42709)">
    <path
       id="path121-7-9"
       style="fill:#000000;fill-opacity:1;stroke:#ffffff;stroke-width:0.384445;stroke-linecap:round;stroke-linejoin:round;stroke-miterlimit:1;stroke-dasharray:none;stroke-opacity:1"
       d="m 167.51593,178.78114 -0.96482,0.73276 -2.28556,-1.98117 1.05806,-0.6656 z m -5.17555,-3.11142 2.10022,1.75289 m -1.51616,-2.19674 2.11775,1.81829 m -1.47299,-0.72946 -0.0224,-2.81873 c 0.0285,0.81327 -1.39587,1.54695 -3.14955,1.54695 -1.75368,0 -3.17263,-0.73368 -3.20109,-1.54695 l 0.0224,2.81873 m 6.32827,-2.81873 c 0.0142,0.85436 -1.39587,1.54695 -3.14955,1.54695 -1.75368,0 -3.18685,-0.69259 -3.20107,-1.54695 -0.0142,-0.85435 1.39587,-1.54695 3.14955,-1.54695 1.75367,0 3.18685,0.6926 3.20107,1.54695 z m 0.0216,2.81873 c 0.0142,0.85436 -1.39587,1.54695 -3.14955,1.54695 -1.75367,0 -3.18685,-0.69259 -3.20108,-1.54695"
       inkscape:label="path121-7-9"
       sodipodi:nodetypes="cccccccccccscccscsccsc" />
    <ellipse
       style="fill:#ffffff;fill-opacity:1;stroke:none;stroke-width:0.419958;stroke-linecap:round;stroke-linejoin:round;stroke-miterlimit:1;stroke-dasharray:none"
       id="path1-1"
       cx="160.37152"
       cy="174.1331"
       rx="2.7041209"
       ry="1.0192574" />
  </g>
</svg>
