<?xml version="1.0" encoding="UTF-8" standalone="no"?>
<!-- Created with Inkscape (http://www.inkscape.org/) -->

<svg
   width="26.130762mm"
   height="23.433372mm"
   viewBox="0 0 26.130762 23.433372"
   version="1.1"
   id="svg1"
   inkscape:version="1.3 (0e150ed6c4, 2023-07-21)"
   sodipodi:docname="kávéfőző.svg"
   xmlns:inkscape="http://www.inkscape.org/namespaces/inkscape"
   xmlns:sodipodi="http://sodipodi.sourceforge.net/DTD/sodipodi-0.dtd"
   xmlns="http://www.w3.org/2000/svg"
   xmlns:svg="http://www.w3.org/2000/svg">
  <sodipodi:namedview
     id="namedview1"
     pagecolor="#ff0000"
     bordercolor="#000000"
     borderopacity="0.25"
     inkscape:showpageshadow="2"
     inkscape:pageopacity="0.0"
     inkscape:pagecheckerboard="0"
     inkscape:deskcolor="#d1d1d1"
     inkscape:document-units="mm"
     inkscape:zoom="6.6350729"
     inkscape:cx="50.2632"
     inkscape:cy="30.670349"
     inkscape:window-width="1920"
     inkscape:window-height="1166"
     inkscape:window-x="-11"
     inkscape:window-y="-11"
     inkscape:window-maximized="1"
     inkscape:current-layer="layer1"
     showguides="false" />
  <defs
     id="defs1" />
  <g
     inkscape:label="Réteg 1"
     inkscape:groupmode="layer"
     id="layer1"
     transform="translate(-139.96402,-157.42709)">
    <path
       style="fill:#000000;stroke:#ffffff;stroke-width:0.600001;stroke-linecap:round;stroke-linejoin:round;stroke-miterlimit:1"
       d="m 140.21406,157.67713 0.23013,13.81935 6.13647,6.03593 8.16889,-0.004 2.52832,3.02144 8.28162,0.0601 -0.042,-1.62306 -2.92704,-2.94033 -0.10495,-14.01171 -6.68562,-4.35821 z"
       id="path15"
       transform="translate(2.2916669e-7)" />
    <path
       id="path1"
       style="display:inline;opacity:1;fill:none;fill-opacity:1;fill-rule:nonzero;stroke:#ffffff;stroke-width:0.500063;stroke-linecap:round;stroke-linejoin:round;stroke-miterlimit:1;stroke-dasharray:none;stroke-opacity:1"
       d="m 148.98771,170.98357 h 3.29426 l 0.0244,1.46648 h -3.29426 z m 2.10212,-5.31286 h 1.29645 l 0.0223,1.33896 h -1.29645 z m -2.33784,0 h 1.3177 l 0.0219,1.31771 h -1.3177 z m 3.05497,3.3721 c 0.0102,0.61036 -0.45737,1.10517 -1.04426,1.10517 -0.58689,0 -1.07091,-0.4948 -1.08107,-1.10517 -0.0102,-0.61038 0.45737,-1.10518 1.04426,-1.10518 0.58689,0 1.07091,0.49481 1.08107,1.10518 z m -3.68547,-4.22224 h 4.93076 l 0.14299,8.58634 h -4.93077 z m 9.19186,14.1245 -0.0354,1.60526 m -2.49369,-4.44842 -0.0347,1.42698 m 10.76793,1.45847 -8.20414,-0.0423 -2.5298,-2.79755 7.80688,-0.10048 m -16.12625,-14.07131 0.11699,15.55717 m 15.90433,-15.49804 -16.02132,-0.0591 -6.25012,-4.29859"
       transform="translate(2.2916669e-7)" />
  </g>
</svg>
