<?xml version="1.0" encoding="UTF-8" standalone="no"?>
<!-- Created with Inkscape (http://www.inkscape.org/) -->

<svg
   width="200mm"
   height="200mm"
   viewBox="0 0 200 200"
   version="1.1"
   id="svg1"
   inkscape:version="1.3 (0e150ed6c4, 2023-07-21)"
   sodipodi:docname="telifőzőcsésze.svg"
   xmlns:inkscape="http://www.inkscape.org/namespaces/inkscape"
   xmlns:sodipodi="http://sodipodi.sourceforge.net/DTD/sodipodi-0.dtd"
   xmlns="http://www.w3.org/2000/svg"
   xmlns:svg="http://www.w3.org/2000/svg">
  <sodipodi:namedview
     id="namedview1"
     pagecolor="#000000"
     bordercolor="#000000"
     borderopacity="0.25"
     inkscape:showpageshadow="2"
     inkscape:pageopacity="0.0"
     inkscape:pagecheckerboard="0"
     inkscape:deskcolor="#d1d1d1"
     inkscape:document-units="mm"
     inkscape:zoom="0.82938412"
     inkscape:cx="466.00844"
     inkscape:cy="532.32271"
     inkscape:window-width="1920"
     inkscape:window-height="1166"
     inkscape:window-x="-11"
     inkscape:window-y="-11"
     inkscape:window-maximized="1"
     inkscape:current-layer="layer1" />
  <defs
     id="defs1" />
  <g
     inkscape:label="Réteg 1"
     inkscape:groupmode="layer"
     id="layer1">
    <path
       id="path121-7"
       style="fill:#000000;fill-opacity:1;stroke:#ffffff;stroke-width:7;stroke-linecap:round;stroke-linejoin:round;stroke-miterlimit:1;stroke-dasharray:none;stroke-opacity:1"
       d="m 194.18685,158.51438 -17.56744,13.34224 -41.61572,-36.07347 19.2652,-12.11927 z m -94.236856,-56.65294 38.241076,31.91664 m -27.60646,-39.998325 38.56013,33.107605 m -26.82031,-13.28209 -0.40794,-51.323685 c 0.51848,14.80811 -25.416266,28.16699 -57.34739,28.16698 -31.93112,-3e-5 -58.2363598,-12.00435 -58.7545398,-26.81242 l 0.87622,49.969125 M 121.91649,62.281585 c 0.25906,15.5562 -25.416266,28.16699 -57.34739,28.16698 -31.93112,-3e-5 -58.0263198,-12.61081 -58.2853698,-28.16698 -0.25906,-15.55617 25.4161298,-28.16695 57.3472398,-28.16698 31.931124,-10e-6 58.02647,12.61078 58.28552,28.16698 z m 0.39324,51.323695 c 0.25906,15.55618 -25.416126,28.16695 -57.34724,28.16698 -31.93112,2e-5 -58.0264698,-12.61077 -58.2855198,-28.16698" />
    <ellipse
       style="fill:#ffffff;fill-opacity:1;stroke:none;stroke-width:7.64664;stroke-linecap:round;stroke-linejoin:round;stroke-miterlimit:1;stroke-dasharray:none"
       id="path1"
       cx="64.10096"
       cy="73.882431"
       rx="49.23687"
       ry="18.558729" />
  </g>
</svg>
